<mxfile host="app.diagrams.net" modified="2020-11-09T17:50:46.536Z" agent="5.0 (Windows)" etag="yOutZwQxursAG4t9J0e0" version="13.8.8" type="github">
  <diagram id="zcZmubBTFPgRcmoIeQr6" name="Page-1">
    <mxGraphModel dx="891" dy="473" grid="1" gridSize="10" guides="1" tooltips="1" connect="1" arrows="1" fold="1" page="1" pageScale="1" pageWidth="827" pageHeight="1169" math="0" shadow="0">
      <root>
        <mxCell id="0" />
        <mxCell id="1" parent="0" />
        <mxCell id="HtH8b549MW-XR1xS6iwa-7" style="edgeStyle=orthogonalEdgeStyle;rounded=0;orthogonalLoop=1;jettySize=auto;html=1;exitX=1;exitY=0;exitDx=0;exitDy=0;entryX=0;entryY=0.5;entryDx=0;entryDy=0;" edge="1" parent="1" source="HtH8b549MW-XR1xS6iwa-1" target="HtH8b549MW-XR1xS6iwa-5">
          <mxGeometry relative="1" as="geometry" />
        </mxCell>
        <mxCell id="HtH8b549MW-XR1xS6iwa-1" value="&lt;div&gt;Finalizar Análise&lt;/div&gt;&lt;div&gt;&lt;br&gt;&lt;/div&gt;&lt;div&gt;/homeCgmrr/AnaliseRelatorio/Analise/finalizarRelatorio&lt;br&gt;&lt;/div&gt;" style="rounded=0;whiteSpace=wrap;html=1;" vertex="1" parent="1">
          <mxGeometry x="105" y="320" width="330" height="60" as="geometry" />
        </mxCell>
        <mxCell id="HtH8b549MW-XR1xS6iwa-4" value="" style="edgeStyle=orthogonalEdgeStyle;rounded=0;orthogonalLoop=1;jettySize=auto;html=1;" edge="1" parent="1" source="HtH8b549MW-XR1xS6iwa-2" target="HtH8b549MW-XR1xS6iwa-1">
          <mxGeometry relative="1" as="geometry" />
        </mxCell>
        <mxCell id="HtH8b549MW-XR1xS6iwa-2" value="Tela de análise" style="rounded=0;whiteSpace=wrap;html=1;" vertex="1" parent="1">
          <mxGeometry x="210" y="30" width="120" height="60" as="geometry" />
        </mxCell>
        <mxCell id="HtH8b549MW-XR1xS6iwa-3" value="&lt;h1&gt;Tela&lt;/h1&gt;&lt;p&gt;application\views\homeCgmrr\analiseRelatorio\analiseRelatorio.php&lt;/p&gt;&lt;p&gt;JS: C:\desenvolvimento\supra\assets\js\homeCgmrr\analiseRelatorio\analiseRelatorio.js &amp;gt; sumbitAnalise()&lt;br&gt;&lt;/p&gt;" style="text;html=1;strokeColor=none;fillColor=none;spacing=5;spacingTop=-20;whiteSpace=wrap;overflow=hidden;rounded=0;" vertex="1" parent="1">
          <mxGeometry x="410" y="10" width="410" height="120" as="geometry" />
        </mxCell>
        <mxCell id="HtH8b549MW-XR1xS6iwa-5" value="&lt;div&gt;tb_analise_relatorio-&amp;gt;getByIdperfilAndIdrelatorio(id_perfil_tb_usuario)&lt;/div&gt;&lt;div&gt;Análise estrutural, tecnica e perfis que podem realizar esta analise&lt;br&gt;&lt;/div&gt;" style="rounded=0;whiteSpace=wrap;html=1;" vertex="1" parent="1">
          <mxGeometry x="500" y="170" width="390" height="60" as="geometry" />
        </mxCell>
      </root>
    </mxGraphModel>
  </diagram>
</mxfile>
